<?xml version="1.0" encoding="utf-8"?>
<!-- Generator: Adobe Illustrator 22.1.0, SVG Export Plug-In . SVG Version: 6.00 Build 0)  -->
<svg version="1.1" id="Layer_1" xmlns="http://www.w3.org/2000/svg" xmlns:xlink="http://www.w3.org/1999/xlink" x="0px" y="0px"
	 viewBox="0 0 190 80" style="enable-background:new 0 0 190 80;" xml:space="preserve">
<style type="text/css">
	.st0{fill:#FFFFFF;}
</style>
<g>
	<g>
		<path class="st0" d="M74.9,48.2l-8.5-15.4h5.1l5.8,10.9l5.4-10.9h4.9L72.5,62h-5L74.9,48.2L74.9,48.2z"/>
		<path class="st0" d="M104.7,47.6h11.2v4.1H96l12.2-14.8h-9.6v-4.1h18.3C116.9,32.8,104.7,47.6,104.7,47.6z"/>
		<path class="st0" d="M127.9,32.8h4.4v1.7c0.8-0.8,1.5-1.4,2.1-1.7c0.6-0.3,1.4-0.5,2.3-0.5c1.1,0,2.4,0.4,3.6,1.1l-2,4
			c-0.8-0.6-1.6-0.9-2.4-0.9c-2.4,0-3.6,1.8-3.6,5.4v9.8h-4.4L127.9,32.8L127.9,32.8z"/>
		<path class="st0" d="M164.4,19h4.4v32.8h-4.4v-2c-1.7,1.7-3.7,2.5-5.8,2.5c-2.6,0-4.7-0.9-6.4-2.8c-1.7-1.9-2.5-4.3-2.5-7.2
			s0.9-5.2,2.5-7.1c1.7-1.9,3.8-2.8,6.4-2.8c2.2,0,4.2,0.9,5.9,2.7L164.4,19L164.4,19z M154,42.2c0,1.8,0.5,3.3,1.5,4.4
			c1,1.2,2.3,1.7,3.8,1.7c1.6,0,2.9-0.6,3.9-1.7c1-1.2,1.5-2.6,1.5-4.4s-0.5-3.2-1.5-4.4c-1-1.1-2.3-1.7-3.9-1.7
			c-1.5,0-2.8,0.6-3.8,1.7C154.5,39.1,154,40.5,154,42.2L154,42.2z"/>
	</g>
	<g>
		<polygon class="st0" points="62.2,18.9 46.2,45.5 29.3,18.9 24.3,18.9 46.3,53.4 67.1,18.9 		"/>
		<polygon class="st0" points="53.8,18.9 46.2,31.5 28.8,4.2 62.6,4.2 57.8,12.1 62.7,12.1 70,0 21.2,0 46.3,39.4 58.6,18.9 		"/>
	</g>
</g>
<g>
	<path class="st0" d="M52.5,64.9h-4.4v3h4.2v1.8h-4.2v6h-1.9V63.1h6.3V64.9L52.5,64.9z"/>
	<path class="st0" d="M56.2,67.7v4.6c0,1.3,0.5,2,1.6,2s1.6-0.7,1.6-2v-4.6h1.8v4.6c0,0.6-0.1,1.2-0.2,1.7c-0.2,0.4-0.4,0.8-0.8,1.1
		c-0.6,0.5-1.4,0.8-2.4,0.8s-1.7-0.3-2.4-0.8c-0.4-0.3-0.7-0.7-0.8-1.1c-0.2-0.4-0.2-0.9-0.2-1.7v-4.6H56.2z"/>
	<path class="st0" d="M65.4,69.4v6.2h-1.8v-6.2h-0.8v-1.7h0.8v-2.9h1.8v2.9h1.4v1.7H65.4z"/>
	<path class="st0" d="M69.9,67.7v4.6c0,1.3,0.5,2,1.6,2s1.6-0.7,1.6-2v-4.6h1.8v4.6c0,0.6-0.1,1.2-0.2,1.7c-0.2,0.4-0.4,0.8-0.8,1.1
		c-0.6,0.5-1.4,0.8-2.4,0.8s-1.7-0.3-2.4-0.8c-0.4-0.3-0.7-0.7-0.8-1.1c-0.2-0.4-0.2-0.9-0.2-1.7v-4.6H69.9L69.9,67.7z"/>
	<path class="st0" d="M77.1,67.7H79v0.7c0.3-0.3,0.6-0.6,0.9-0.7c0.3-0.1,0.6-0.2,0.9-0.2c0.5,0,1,0.2,1.5,0.5l-0.8,1.7
		c-0.3-0.3-0.7-0.4-1-0.4c-1,0-1.5,0.8-1.5,2.3v4.1h-1.8L77.1,67.7L77.1,67.7z"/>
	<path class="st0" d="M90.6,72.1h-5.7c0.1,0.7,0.3,1.2,0.6,1.6c0.4,0.4,0.9,0.6,1.4,0.6c0.5,0,0.8-0.1,1.1-0.3
		c0.3-0.2,0.6-0.6,1-1.2l1.6,0.9c-0.2,0.4-0.5,0.8-0.8,1.1c-0.3,0.3-0.6,0.5-0.9,0.7s-0.6,0.3-1,0.4c-0.3,0.1-0.7,0.1-1.2,0.1
		c-1.2,0-2.1-0.4-2.9-1.1C83.3,74,83,73,83,71.7s0.3-2.3,1-3.1c0.7-0.8,1.6-1.2,2.8-1.2s2.1,0.4,2.8,1.1c0.7,0.7,1,1.8,1,3.1
		L90.6,72.1L90.6,72.1z M88.7,70.6c-0.3-1-0.9-1.5-1.8-1.5c-0.2,0-0.4,0-0.6,0.1s-0.4,0.2-0.5,0.3c-0.2,0.1-0.3,0.3-0.4,0.5
		s-0.2,0.4-0.3,0.6L88.7,70.6L88.7,70.6z"/>
	<path class="st0" d="M92.9,74.8c0-0.3,0.1-0.6,0.3-0.8s0.5-0.3,0.8-0.3s0.6,0.1,0.8,0.3s0.3,0.5,0.3,0.8s-0.1,0.6-0.3,0.8
		s-0.5,0.3-0.8,0.3s-0.6-0.1-0.8-0.3S92.9,75.1,92.9,74.8L92.9,74.8z"/>
	<path class="st0" d="M107.6,70.3l3.9,5.4h-2.3l-3.6-5.2h-0.3v5.2h-1.9V63.1h2.2c1.7,0,2.9,0.3,3.6,0.9c0.8,0.7,1.2,1.6,1.2,2.8
		c0,0.9-0.3,1.7-0.8,2.3C109.1,69.7,108.4,70.1,107.6,70.3L107.6,70.3z M105.2,68.9h0.6c1.8,0,2.7-0.7,2.7-2.1
		c0-1.3-0.9-1.9-2.6-1.9h-0.7L105.2,68.9L105.2,68.9z"/>
	<path class="st0" d="M120.3,72.1h-5.7c0.1,0.7,0.3,1.2,0.6,1.6c0.4,0.4,0.9,0.6,1.4,0.6c0.5,0,0.8-0.1,1.1-0.3
		c0.3-0.2,0.6-0.6,1-1.2l1.6,0.9c-0.2,0.4-0.5,0.8-0.8,1.1c-0.3,0.3-0.6,0.5-0.9,0.7s-0.6,0.3-1,0.4c-0.3,0.1-0.7,0.1-1.2,0.1
		c-1.2,0-2.1-0.4-2.9-1.1c-0.7-0.8-1.1-1.8-1.1-3.1s0.3-2.3,1-3.1c0.7-0.8,1.6-1.2,2.8-1.2s2.1,0.4,2.8,1.1c0.7,0.7,1,1.8,1,3.1
		L120.3,72.1L120.3,72.1z M118.4,70.6c-0.3-1-0.9-1.5-1.8-1.5c-0.2,0-0.4,0-0.6,0.1s-0.4,0.2-0.5,0.3c-0.2,0.1-0.3,0.3-0.4,0.5
		s-0.2,0.4-0.3,0.6L118.4,70.6L118.4,70.6z"/>
	<path class="st0" d="M128.1,67.7h1.8v7.9h-1.8v-0.8c-0.8,0.7-1.6,1.1-2.4,1.1c-1.1,0-2-0.4-2.7-1.2c-0.7-0.8-1.1-1.8-1.1-3
		s0.4-2.2,1.1-3c0.7-0.8,1.6-1.2,2.7-1.2c0.9,0,1.8,0.4,2.5,1.1V67.7L128.1,67.7z M123.8,71.7c0,0.8,0.2,1.4,0.6,1.9
		c0.4,0.5,0.9,0.7,1.6,0.7c0.7,0,1.2-0.2,1.7-0.7c0.4-0.5,0.6-1.1,0.6-1.8s-0.2-1.4-0.6-1.8c-0.4-0.5-1-0.7-1.6-0.7
		c-0.6,0-1.2,0.2-1.6,0.7S123.8,71,123.8,71.7L123.8,71.7z"/>
	<path class="st0" d="M138.1,61.9h1.8v13.8h-1.8v-0.8c-0.7,0.7-1.5,1.1-2.5,1.1c-1.1,0-2-0.4-2.7-1.2c-0.7-0.8-1.1-1.8-1.1-3
		s0.4-2.2,1.1-3c0.7-0.8,1.6-1.2,2.7-1.2c0.9,0,1.8,0.4,2.5,1.1L138.1,61.9L138.1,61.9z M133.8,71.7c0,0.8,0.2,1.4,0.6,1.9
		c0.4,0.5,0.9,0.7,1.6,0.7c0.7,0,1.2-0.2,1.6-0.7c0.4-0.5,0.6-1.1,0.6-1.8s-0.2-1.4-0.6-1.8c-0.4-0.5-1-0.7-1.6-0.7
		c-0.6,0-1.2,0.2-1.6,0.7S133.8,71,133.8,71.7L133.8,71.7z"/>
	<path class="st0" d="M144.8,74.2l-3.6-6.5h2.1l2.4,4.6l2.3-4.6h2.1L143.8,80h-2.1L144.8,74.2z"/>
	<path class="st0" d="M151.7,74.8c0-0.3,0.1-0.6,0.3-0.8s0.5-0.3,0.8-0.3s0.6,0.1,0.8,0.3s0.3,0.5,0.3,0.8s-0.1,0.6-0.3,0.8
		s-0.5,0.3-0.8,0.3s-0.6-0.1-0.8-0.3S151.7,75.1,151.7,74.8L151.7,74.8z"/>
	<path class="st0" d="M158.3,63.8v6.3h-1.1v-6.3h-1.7v-1h4.5v1H158.3z"/>
	<path class="st0" d="M160.7,70.1l1.6-7.9l2.5,5.7l2.6-5.7l1.4,7.9h-1.1l-0.7-4.4l-2.2,4.8l-2.1-4.8l-0.8,4.4H160.7L160.7,70.1z"/>
</g>
</svg>
